<svg width="139" height="24" viewBox="0 0 139 24" fill="none" xmlns="http://www.w3.org/2000/svg">
<path d="M4.16041 21.4374H11.1703V0.625H15.4066V21.4374H22.5649V2.04975H26.8012V23.083H0V2.19464H4.16386V21.4374H4.16041Z" fill="white"/>
<path d="M49.1962 0.662598L48.0991 2.37713H34.4277V0.662598H49.1962ZM38.188 23.1171H34.4277V12.309H48.6304V23.1171H44.3217L43.7386 21.3646H44.8702V12.5298L43.956 14.027H38.188V23.1171ZM48.3027 11.1395H34.7934V3.5466H48.3027V11.1395ZM42.2759 14.6824H44.6114L43.4903 17.2387H44.501L43.442 18.9912H43.0038V23.1171H40.0094V18.9912H38.5191V17.2387H39.5058L38.4053 14.6824H40.7408L41.5066 16.397L42.2725 14.6824H42.2759ZM38.9193 5.26113V9.3491H44.1768V3.83638L43.2626 5.26113H38.9159H38.9193ZM53.5601 14.4272H49.3963V4.49528H55.2747V0.662598H59.0728V4.49528H64.8408V14.4272H60.677V14.3892H59.0694V20.1952L60.7115 19.9744L60.2009 16.7971H64.3268L65.348 23.1137H61.222L60.9668 21.6889L49.3928 23.1137V21.3612L55.2712 20.6678V14.3892H53.5567V14.4272H53.5601ZM53.5601 12.6367H55.2747V6.20982H53.5601V12.6367ZM59.0728 6.21327V12.6402H60.6804L60.7115 4.78851L59.78 6.21327H59.0728Z" fill="white"/>
<path d="M77.0744 6.10986H74.7735L77.0744 10.8498H73.021L70.6096 5.93047H72.8726L70.4268 0.880015H74.4802L77.071 6.10986H77.0744ZM74.6665 23.1551H70.613L73.0244 12.4919H77.0779L74.6665 23.1551ZM100.15 12.7472V19.0258H102.413L100.988 20.7403H100.15V23.2586H93.0676L92.1913 21.689H95.8791V20.7403H78.9718V20.7024H78.9339V12.7437H77.8368V11.1017H78.9339V4.85759H100.146V11.1017H102.41L100.985 12.7437H100.146L100.15 12.7472ZM83.6462 0.441895L83.2806 1.71831H101.319L99.8946 3.58118H78.3509L79.265 0.441895H83.6462ZM83.2081 11.1051H88.2103L85.8368 7.37937H90.1835L92.5949 11.1051H95.8825V5.00593L94.6061 6.43068H83.215V11.1051H83.2081ZM95.8791 12.7472H83.2081V19.0258H95.8791V12.7472ZM86.3509 14.2823H90.6941L93.0676 18.4083H88.6863L86.3509 14.2823Z" fill="white"/>
<path d="M113.042 6.24811L115.05 3.65734H112.932L111.983 5.11659H107.419L110.303 0.625H114.905L113.991 2.08425L124.033 2.0463L123.157 3.65389H119.652L117.606 6.24466H124.944L124.03 8.06959H116.216L112.821 12.4508H108.257L111.652 8.06959H107.743V6.24466H113.039L113.042 6.24811ZM110.303 13.258H132.651L131.702 14.9726H114.467V17.1632H132.651V13.2546H136.814V23.0761H110.306V13.2546L110.303 13.258ZM114.463 18.8811V21.365H132.647V18.8811H114.463ZM124.506 12.4577H119.942L116.292 9.02517H120.894L124.509 12.4577H124.506ZM138.419 11.7608H125.02V1.53574H134.258L133.309 3.25027H129.184V10.0429H134.258V1.53574H138.422V11.7608H138.419Z" fill="white"/>
</svg>
