<svg width="138" height="5" viewBox="0 0 138 5" fill="none" xmlns="http://www.w3.org/2000/svg">
<path d="M6.35822 4.55802H5.01375V1.79439L3.76732 4.55802H2.61892L1.38648 1.83173V4.55802H0V0.263184H1.85331L3.20712 3.20421L4.5656 0.263184H6.35822V4.55802Z" fill="white"/>
<path d="M25.6287 2.94306H27.4213L26.9825 3.53127H25.3859L24.9891 4.55363H23.3926L25.1245 0.258789H27.8741L29.6154 4.55363H28.0329L27.426 2.93839L26.6184 0.832988H26.3803L25.6334 2.93839L25.6287 2.94306Z" fill="white"/>
<path d="M49.9038 4.55802L48.8814 2.77472H48.1578V4.55802H46.6406V0.263184H49.8057L49.3296 0.823378H48.1578V2.21454H49.8104V0.263184H51.3183V2.77472H50.52L51.505 4.55802H49.9084H49.9038Z" fill="white"/>
<path d="M71.9381 4.55802H70.4443V0.837389H68.5303V0.263184H73.9828L73.6561 0.837389H71.9381V4.55802Z" fill="white"/>
<path d="M93.2537 2.94306H95.0463L94.6075 3.53127H93.0109L92.6141 4.55363H91.0176L92.7495 0.258789H95.4991L97.2404 4.55363H95.6579L95.051 2.93839L94.2434 0.832988H94.0053L93.2584 2.93839L93.2537 2.94306Z" fill="white"/>
<path d="M115.723 4.55802H114.267V0.263184H115.723V4.55802Z" fill="white"/>
<path d="M136.329 4.55802L134.261 1.57031V4.55802H132.753V0.263184H134.443L136.506 3.30224V0.263184H138V4.55802H136.334H136.329Z" fill="white"/>
</svg>
