<svg width="48" height="42" viewBox="0 0 48 42" fill="none" xmlns="http://www.w3.org/2000/svg">
<path d="M23.3303 7.3603C23.6479 7.55194 24.0455 7.55202 24.3632 7.3605L34.4093 1.30425C34.7182 1.11806 35.1034 1.11259 35.4174 1.28992L46.4917 7.54402C46.8058 7.72138 47 8.0541 47 8.41476V33.5667C47 33.9269 46.8064 34.2592 46.4931 34.4367L35.4496 40.6959C35.1207 40.8823 34.7147 40.8673 34.4005 40.6571L24.3383 33.9257C24.0003 33.6996 23.559 33.7007 23.2222 33.9284L13.3019 40.6348C12.9877 40.8472 12.5803 40.8636 12.2501 40.6771L1.50829 34.6112C1.19422 34.4339 1 34.1012 1 33.7405V8.25498C1 7.89463 1.19387 7.56216 1.50747 7.38468L12.2804 1.28789C12.5946 1.11004 12.9804 1.11542 13.2895 1.30196L23.3303 7.3603ZM7 28.1691C7 28.9601 7.87495 29.4379 8.54047 29.0104L11.5405 27.0833C11.8269 26.8993 12 26.5823 12 26.2419V14.862C12 14.5273 11.8326 14.2148 11.5539 14.0294L8.55387 12.0337C7.88926 11.5916 7 12.068 7 12.8663V28.1691ZM36.4462 14.0284C36.1675 14.2138 36 14.5264 36 14.8611V26.1887C36 26.5261 36.1702 26.8408 36.4526 27.0255L39.4526 28.9878C40.1177 29.4229 41 28.9457 41 28.151V12.866C41 12.0678 40.1109 11.5913 39.4462 12.0333L36.4462 14.0284Z" fill="white"/>
<path d="M39.4462 12.0333L40 12.866L39.4462 12.0333ZM36.4526 27.0255L37 26.1887L36.4526 27.0255ZM36.4462 14.0284L37 14.8611L36.4462 14.0284ZM11.5539 14.0294L11 14.862L11.5539 14.0294ZM11.5405 27.0833L12.081 27.9246L11.5405 27.0833ZM8.54047 29.0104L9.08095 29.8518L8.54047 29.0104ZM12.2804 1.28789L11.7878 0.417593L12.2804 1.28789ZM13.2895 1.30196L12.7729 2.15818L13.2895 1.30196ZM1.50829 34.6112L1.01657 35.482L1.50829 34.6112ZM13.3019 40.6348L13.8619 41.4632L13.3019 40.6348ZM12.2501 40.6771L11.7584 41.5478L12.2501 40.6771ZM24.3383 33.9257L23.7822 34.7568L24.3383 33.9257ZM23.2222 33.9284L22.6621 33.0999L23.2222 33.9284ZM35.4496 40.6959L35.9427 41.5659L35.4496 40.6959ZM34.4005 40.6571L33.8445 41.4883L34.4005 40.6571ZM46.4931 34.4367L46.9862 35.3067L46.4931 34.4367ZM46.4917 7.54402L46 8.41476L46.4917 7.54402ZM34.4093 1.30425L34.9256 2.16067L34.4093 1.30425ZM35.4174 1.28992L34.9256 2.16067L35.4174 1.28992ZM24.3632 7.3605L24.8795 8.21692L24.3632 7.3605ZM23.3303 7.3603L22.8137 8.21651L23.3303 7.3603ZM24.3632 7.3605L24.8795 8.21692L34.9256 2.16067L34.4093 1.30425L33.8931 0.447833L23.8469 6.50408L24.3632 7.3605ZM35.4174 1.28992L34.9256 2.16067L46 8.41476L46.4917 7.54402L46.9835 6.67328L35.9091 0.419182L35.4174 1.28992ZM47 8.41476H46V33.5667H47H48V8.41476H47ZM46.4931 34.4367L46 33.5667L34.9565 39.8259L35.4496 40.6959L35.9427 41.5659L46.9862 35.3067L46.4931 34.4367ZM34.4005 40.6571L34.9565 39.8259L24.8943 33.0945L24.3383 33.9257L23.7822 34.7568L33.8445 41.4883L34.4005 40.6571ZM23.2222 33.9284L22.6621 33.0999L12.7418 39.8063L13.3019 40.6348L13.8619 41.4632L23.7822 34.7568L23.2222 33.9284ZM12.2501 40.6771L12.7418 39.8063L2 33.7405L1.50829 34.6112L1.01657 35.482L11.7584 41.5478L12.2501 40.6771ZM1 33.7405H2V8.25498H1H0V33.7405H1ZM1.50747 7.38468L2 8.25497L12.7729 2.15818L12.2804 1.28789L11.7878 0.417593L1.01494 6.51439L1.50747 7.38468ZM13.2895 1.30196L12.7729 2.15818L22.8137 8.21651L23.3303 7.3603L23.8469 6.50408L13.8061 0.445749L13.2895 1.30196ZM8.54047 29.0104L9.08095 29.8518L12.081 27.9246L11.5405 27.0833L11 26.2419L8 28.1691L8.54047 29.0104ZM12 26.2419H13V14.862H12H11V26.2419H12ZM11.5539 14.0294L12.1077 13.1968L9.10775 11.2011L8.55387 12.0337L8 12.8663L11 14.862L11.5539 14.0294ZM7 12.8663H6V28.1691H7H8V12.8663H7ZM36 14.8611H35V26.1887H36H37V14.8611H36ZM36.4526 27.0255L35.9052 27.8624L38.9052 29.8247L39.4526 28.9878L40 28.151L37 26.1887L36.4526 27.0255ZM41 28.151H42V12.866H41H40V28.151H41ZM39.4462 12.0333L38.8925 11.2006L35.8925 13.1958L36.4462 14.0284L37 14.8611L40 12.866L39.4462 12.0333ZM41 12.866H42C42 11.2696 40.2217 10.3166 38.8925 11.2006L39.4462 12.0333L40 12.866H41ZM39.4526 28.9878L38.9052 29.8247C40.2354 30.6948 42 29.7404 42 28.151H41H40V28.151L39.4526 28.9878ZM36 26.1887H35C35 26.8636 35.3404 27.493 35.9052 27.8624L36.4526 27.0255L37 26.1887H36ZM36 14.8611H37L36.4462 14.0284L35.8925 13.1958C35.335 13.5665 35 14.1916 35 14.8611H36ZM8.55387 12.0337L9.10775 11.2011C7.77851 10.3168 6 11.2698 6 12.8663H7H8H8L8.55387 12.0337ZM12 14.862H13C13 14.1926 12.6651 13.5676 12.1077 13.1968L11.5539 14.0294L11 14.862H12ZM11.5405 27.0833L12.081 27.9246C12.6537 27.5567 13 26.9227 13 26.2419H12H11L11.5405 27.0833ZM8.54047 29.0104L8 28.1691H7H6C6 29.7511 7.74989 30.7068 9.08095 29.8518L8.54047 29.0104ZM12.2804 1.28789L12.7729 2.15818L12.7729 2.15818L13.2895 1.30196L13.8061 0.445749C13.1878 0.0726575 12.4163 0.0618968 11.7878 0.417593L12.2804 1.28789ZM1 8.25498H2V8.25497L1.50747 7.38468L1.01494 6.51439C0.38773 6.86934 0 7.5343 0 8.25498H1ZM1.50829 34.6112L2 33.7405H2H1H0C0 34.4618 0.388449 35.1273 1.01657 35.482L1.50829 34.6112ZM13.3019 40.6348L12.7418 39.8063H12.7418L12.2501 40.6771L11.7584 41.5478C12.4189 41.9208 13.2335 41.8881 13.8619 41.4632L13.3019 40.6348ZM24.3383 33.9257L24.8943 33.0945C24.2183 32.6423 23.3359 32.6445 22.6621 33.0999L23.2222 33.9284L23.7822 34.7568L24.3383 33.9257ZM35.4496 40.6959L34.9565 39.8259L34.4005 40.6571L33.8445 41.4883C34.473 41.9087 35.2848 41.9387 35.9427 41.5659L35.4496 40.6959ZM47 33.5667H46L46.4931 34.4367L46.9862 35.3067C47.6128 34.9516 48 34.287 48 33.5667H47ZM46.4917 7.54402L46 8.41476V8.41476H47H48C48 7.69343 47.6116 7.02799 46.9835 6.67328L46.4917 7.54402ZM34.4093 1.30425L34.9256 2.16067V2.16067L35.4174 1.28992L35.9091 0.419182C35.2811 0.0645151 34.5108 0.0754633 33.8931 0.447833L34.4093 1.30425ZM24.3632 7.3605L23.8469 6.50408L23.3303 7.3603L22.8137 8.21651C23.4489 8.59979 24.2441 8.59995 24.8795 8.21692L24.3632 7.3605Z" fill="white"/>
<path d="M6 12.1263L1 9V32L6 28.8737V12.1263Z" fill="#50B6DE"/>
<path d="M42 20L47 17.0747V9L42 12.2249V20Z" fill="#16658B"/>
<path d="M42 29.7348L47 33V18L42 20.9622V29.7348Z" fill="#16658B"/>
<path d="M1 7.17939L1.31893 7.36223V7L1 7.17939Z" fill="#2766A9"/>
<path d="M12.8708 1L1.44906 7.4235L1.33691 7.48905V7.85128L6.62548 10.9181L11.5601 13.8815L22.8206 6.95088L12.8708 1Z" fill="#62C2C3"/>
<path d="M12.4989 27.6665L1 34.3349L12.8528 40.9999L23.3459 33.9555L12.4989 27.6665Z" fill="#16658B"/>
<path d="M12.535 27.6664L23.347 21.3981V21.3774L12.5 27.6664L23.347 33.9554V33.9347L12.535 27.6664Z" fill="#16658B"/>
<path d="M46.5869 7.4235L35.1651 1L25.1768 6.97503L36.3111 13.8746L41.7083 10.7456L43.4677 9.72451L46.9654 7.63739L46.5869 7.4235Z" fill="#50B6DE"/>
<path d="M35.5022 14.8439L24.6201 8.10303V21.3399L35.5022 14.8439Z" fill="#62C2C3"/>
<path d="M23.3461 8.09961L12.5166 14.768L23.3461 21.3709V8.09961Z" fill="#62C2C3"/>
<path d="M46.9169 34.3349L35.5372 27.6665L24.6201 33.9969L35.1832 40.9999L46.9765 34.3694L46.9169 34.3349Z" fill="#16658B"/>
<path d="M35.5197 27.6668L24.6201 21.3398V21.3571L35.5022 27.6668L24.6201 33.9764V33.9971L35.5372 27.6668L35.5197 27.6564V27.6668Z" fill="#2766A9"/>
<path d="M35.5022 27.6666L24.6201 21.3569V33.9763L35.5022 27.6666Z" fill="#62C2C3"/>
<path d="M23.3461 33.935V21.3984L12.5342 27.6667L23.3461 33.935Z" fill="#62C2C3"/>
<path d="M12.5175 14.7681L12.5 27.6668L23.347 21.371L12.5175 14.7681Z" fill="#50B6DE"/>
<path d="M24.6201 21.3362L35.5197 27.6563L35.5022 14.8438L24.6201 21.3362Z" fill="#16658B"/>
<path d="M24.6201 21.3399L35.5197 27.6668V27.6564L24.6201 21.3364V21.3399Z" fill="#16658B"/>
</svg>
